<?xml version="1.0" encoding="UTF-8"?>
<!DOCTYPE svg PUBLIC "-//W3C//DTD SVG 1.1//EN" "http://www.w3.org/Graphics/SVG/1.1/DTD/svg11.dtd">
<svg xmlns="http://www.w3.org/2000/svg" version="1.1" width="3464px" height="3464px" style="shape-rendering:geometricPrecision; text-rendering:geometricPrecision; image-rendering:optimizeQuality; fill-rule:evenodd; clip-rule:evenodd" xmlns:xlink="http://www.w3.org/1999/xlink">
<g><path style="opacity:0.988" fill="#fefffe" d="M 678.5,1555.5 C 693.833,1555.5 709.167,1555.5 724.5,1555.5C 724.333,1610.83 724.5,1666.17 725,1721.5C 759.723,1693.75 798.89,1684.59 842.5,1694C 868.335,1701.5 884.168,1718.33 890,1744.5C 890.5,1810.83 890.667,1877.17 890.5,1943.5C 874.833,1943.5 859.167,1943.5 843.5,1943.5C 843.667,1879.83 843.5,1816.17 843,1752.5C 840.989,1744.98 836.489,1739.48 829.5,1736C 815.603,1730.36 801.27,1729.02 786.5,1732C 764.297,1736.1 743.964,1744.6 725.5,1757.5C 724.5,1819.5 724.167,1881.5 724.5,1943.5C 709.167,1943.5 693.833,1943.5 678.5,1943.5C 678.5,1814.17 678.5,1684.83 678.5,1555.5 Z"/></g>
<g><path style="opacity:0.974" fill="#fefffe" d="M 498.5,1563.5 C 534.309,1561.66 568.976,1567 602.5,1579.5C 597.637,1591.42 592.971,1603.42 588.5,1615.5C 587.833,1615.83 587.167,1616.17 586.5,1616.5C 563.892,1608.88 540.726,1604.54 517,1603.5C 490.05,1603.14 468.383,1613.48 452,1634.5C 438.118,1663.42 443.951,1687.59 469.5,1707C 501.176,1725.51 533.176,1743.51 565.5,1761C 582.956,1772.12 597.456,1786.29 609,1803.5C 624.793,1836.17 624.127,1868.51 607,1900.5C 586.306,1929.94 557.806,1946.11 521.5,1949C 475.075,1954.26 430.409,1947.76 387.5,1929.5C 386.386,1928.28 386.219,1926.94 387,1925.5C 390.975,1913.91 395.142,1902.41 399.5,1891C 409.379,1894.29 419.379,1897.63 429.5,1901C 458.382,1909.7 487.715,1911.7 517.5,1907C 536.397,1903.81 551.564,1894.64 563,1879.5C 577.572,1847.55 570.072,1822.05 540.5,1803C 512.328,1787.08 483.994,1771.41 455.5,1756C 431.225,1743.06 413.059,1724.23 401,1699.5C 392.055,1673.61 392.722,1647.94 403,1622.5C 417.681,1595.5 439.848,1577.66 469.5,1569C 479.224,1566.72 488.89,1564.88 498.5,1563.5 Z"/></g>
<g><path style="opacity:0.975" fill="#fefffe" d="M 2208.5,1563.5 C 2245.42,1561.21 2281.42,1565.88 2316.5,1577.5C 2316.83,1578 2317.17,1578.5 2317.5,1579C 2313.67,1590.5 2309.83,1602 2306,1613.5C 2305.63,1614.91 2304.8,1615.91 2303.5,1616.5C 2268.69,1605.39 2233.35,1602.55 2197.5,1608C 2157.04,1616.8 2127.54,1639.63 2109,1676.5C 2091.43,1716.48 2085.77,1758.15 2092,1801.5C 2097.29,1837.27 2113.79,1866.44 2141.5,1889C 2162.72,1903.35 2186.22,1910.18 2212,1909.5C 2239.02,1909.3 2265.19,1904.46 2290.5,1895C 2300.5,1890.73 2310.5,1886.56 2320.5,1882.5C 2322.59,1896.48 2324.59,1910.48 2326.5,1924.5C 2297.35,1936.87 2267.02,1945.04 2235.5,1949C 2200.12,1953.53 2165.79,1949.53 2132.5,1937C 2079.95,1911.79 2048.78,1870.29 2039,1812.5C 2031.12,1766.3 2035.45,1721.3 2052,1677.5C 2082.08,1609.26 2134.25,1571.26 2208.5,1563.5 Z"/></g>
<g><path style="opacity:0.977" fill="#fefffe" d="M 1296.5,1617.5 C 1300.83,1617.5 1305.17,1617.5 1309.5,1617.5C 1309.5,1643.83 1309.5,1670.17 1309.5,1696.5C 1332.83,1696.5 1356.17,1696.5 1379.5,1696.5C 1379.5,1708.17 1379.5,1719.83 1379.5,1731.5C 1356.17,1731.5 1332.83,1731.5 1309.5,1731.5C 1309.33,1783.17 1309.5,1834.83 1310,1886.5C 1313,1903.16 1323,1911.49 1340,1911.5C 1345.85,1910.79 1351.68,1909.96 1357.5,1909C 1366.2,1906.49 1374.87,1903.99 1383.5,1901.5C 1384.89,1912.7 1386.56,1923.86 1388.5,1935C 1388.17,1936.17 1387.83,1937.33 1387.5,1938.5C 1363.18,1949.76 1337.85,1952.93 1311.5,1948C 1283.44,1940.05 1267.94,1921.55 1265,1892.5C 1264.5,1838.83 1264.33,1785.17 1264.5,1731.5C 1253.17,1731.5 1241.83,1731.5 1230.5,1731.5C 1230.5,1719.83 1230.5,1708.17 1230.5,1696.5C 1241.83,1696.5 1253.17,1696.5 1264.5,1696.5C 1264.33,1680.16 1264.5,1663.83 1265,1647.5C 1275.7,1637.63 1286.2,1627.63 1296.5,1617.5 Z"/></g>
<g><path style="opacity:0.966" fill="#fefffe" d="M 1480.5,1617.5 C 1484.83,1617.5 1489.17,1617.5 1493.5,1617.5C 1493.5,1643.83 1493.5,1670.17 1493.5,1696.5C 1516.5,1696.33 1539.5,1696.5 1562.5,1697C 1563.83,1708.33 1563.83,1719.67 1562.5,1731C 1539.5,1731.5 1516.5,1731.67 1493.5,1731.5C 1493.02,1785.2 1493.52,1838.87 1495,1892.5C 1499.94,1905.74 1509.61,1912.07 1524,1911.5C 1529.85,1910.79 1535.68,1909.96 1541.5,1909C 1549.89,1906.49 1558.22,1904.16 1566.5,1902C 1568.76,1913.08 1570.76,1924.24 1572.5,1935.5C 1572.17,1936.5 1571.83,1937.5 1571.5,1938.5C 1547.18,1949.76 1521.85,1952.93 1495.5,1948C 1462,1937.23 1446.17,1914.06 1448,1878.5C 1447.5,1829.5 1447.33,1780.5 1447.5,1731.5C 1436.17,1731.5 1424.83,1731.5 1413.5,1731.5C 1413.5,1719.83 1413.5,1708.17 1413.5,1696.5C 1424.83,1696.5 1436.17,1696.5 1447.5,1696.5C 1447.33,1680.5 1447.5,1664.5 1448,1648.5C 1459.03,1638.3 1469.87,1627.97 1480.5,1617.5 Z"/></g>
<g><path style="opacity:0.967" fill="#fefffe" d="M 2886.5,1617.5 C 2890.83,1617.5 2895.17,1617.5 2899.5,1617.5C 2899.5,1643.83 2899.5,1670.17 2899.5,1696.5C 2922.5,1696.5 2945.5,1696.5 2968.5,1696.5C 2968.5,1708.17 2968.5,1719.83 2968.5,1731.5C 2945.5,1731.5 2922.5,1731.5 2899.5,1731.5C 2899.33,1783.83 2899.5,1836.17 2900,1888.5C 2901.19,1896.39 2905.02,1902.56 2911.5,1907C 2923.23,1912.2 2935.23,1912.86 2947.5,1909C 2955.39,1906.7 2963.23,1904.2 2971,1901.5C 2971.95,1901.91 2972.61,1902.57 2973,1903.5C 2974.78,1914.34 2976.61,1925.18 2978.5,1936C 2978.09,1938.21 2976.76,1939.55 2974.5,1940C 2948.51,1951.36 2921.85,1953.36 2894.5,1946C 2867.64,1934.49 2854.14,1913.99 2854,1884.5C 2853.5,1833.5 2853.33,1782.5 2853.5,1731.5C 2842.17,1731.5 2830.83,1731.5 2819.5,1731.5C 2819.5,1719.83 2819.5,1708.17 2819.5,1696.5C 2830.83,1696.5 2842.17,1696.5 2853.5,1696.5C 2853.17,1680.15 2853.5,1663.82 2854.5,1647.5C 2865.51,1637.82 2876.18,1627.82 2886.5,1617.5 Z"/></g>
<g><path style="opacity:0.973" fill="#fefffe" d="M 1703.5,1690.5 C 1769.41,1685 1807.91,1714.67 1819,1779.5C 1820.33,1789.47 1820.67,1799.47 1820,1809.5C 1814.83,1815.33 1809.67,1821.17 1804.5,1827C 1753.5,1827.5 1702.5,1827.67 1651.5,1827.5C 1652.19,1894.17 1685.19,1921 1750.5,1908C 1767.38,1904.04 1783.21,1897.54 1798,1888.5C 1804.03,1899.22 1809.53,1910.22 1814.5,1921.5C 1769.29,1950.7 1720.95,1957.54 1669.5,1942C 1640.56,1929.72 1621.39,1908.56 1612,1878.5C 1603.65,1847.15 1602.31,1815.48 1608,1783.5C 1616.32,1739.99 1641.15,1710.49 1682.5,1695C 1689.62,1693.41 1696.62,1691.91 1703.5,1690.5 Z M 1708.5,1726.5 C 1744.17,1724.09 1765.67,1740.43 1773,1775.5C 1774.03,1781.12 1774.53,1786.79 1774.5,1792.5C 1734.17,1792.5 1693.83,1792.5 1653.5,1792.5C 1655.86,1766.68 1667.86,1746.85 1689.5,1733C 1695.71,1730.1 1702.04,1727.93 1708.5,1726.5 Z"/></g>
<g><path style="opacity:0.843" fill="#000000" d="M 2576.5,1691.5 C 2589.4,1691.82 2599.4,1697.65 2606.5,1709C 2606.17,1709.33 2605.83,1709.67 2605.5,1710C 2606.83,1711.33 2608.17,1712.67 2609.5,1714C 2609.03,1716.4 2610.03,1718.4 2612.5,1720C 2615.11,1726.68 2618.78,1733.18 2623.5,1739.5C 2623.29,1740.09 2622.96,1740.59 2622.5,1741C 2624.21,1742.38 2625.55,1744.04 2626.5,1746C 2628.38,1746.58 2630.21,1746.41 2632,1745.5C 2639.29,1747.35 2646.45,1748.68 2653.5,1749.5C 2656.84,1748.13 2660.01,1748.46 2663,1750.5C 2663.59,1751.9 2663.43,1753.23 2662.5,1754.5C 2660.66,1755.23 2658.83,1755.9 2657,1756.5C 2650.82,1756.17 2644.65,1756.17 2638.5,1756.5C 2627.91,1757.37 2617.41,1758.7 2607,1760.5C 2603.23,1759.63 2601.23,1757.3 2601,1753.5C 2595.04,1743.75 2589.21,1733.42 2583.5,1722.5C 2580.94,1718.38 2577.6,1717.54 2573.5,1720C 2577.27,1724.11 2577.27,1728.11 2573.5,1732C 2542.57,1735.38 2511.57,1737.72 2480.5,1739C 2476.94,1735.82 2476.61,1732.32 2479.5,1728.5C 2478.67,1727.59 2477.67,1726.92 2476.5,1726.5C 2473.45,1731.43 2470.79,1736.59 2468.5,1742C 2468.96,1742.41 2469.29,1742.91 2469.5,1743.5C 2468.14,1746.83 2466.47,1749.99 2464.5,1753C 2464.96,1753.41 2465.29,1753.91 2465.5,1754.5C 2464.17,1757.17 2462.83,1759.83 2461.5,1762.5C 2461.71,1763.09 2462.04,1763.59 2462.5,1764C 2460.37,1765.67 2459.04,1767.83 2458.5,1770.5C 2438.91,1772.87 2419.24,1774.7 2399.5,1776C 2392.44,1776.46 2386.44,1778.62 2381.5,1782.5C 2380.67,1784.5 2379.83,1786.5 2379,1788.5C 2379.08,1794.75 2378.92,1800.91 2378.5,1807C 2404.04,1806.02 2429.54,1804.19 2455,1801.5C 2457.02,1801.67 2458.85,1802.34 2460.5,1803.5C 2459.29,1806.08 2457.96,1808.58 2456.5,1811C 2430.6,1814.13 2404.6,1816.63 2378.5,1818.5C 2381.16,1848.8 2383.66,1879.14 2386,1909.5C 2388.11,1913.49 2389.11,1917.82 2389,1922.5C 2396.38,1933.76 2406.55,1939.59 2419.5,1940C 2434.66,1939.21 2449.66,1939.38 2464.5,1940.5C 2476.93,1939.07 2489.27,1938.07 2501.5,1937.5C 2510.39,1937.53 2519.22,1937.86 2528,1938.5C 2532.18,1937.89 2536.34,1937.22 2540.5,1936.5C 2549.08,1936.42 2557.58,1936.76 2566,1937.5C 2577.83,1936.29 2589.66,1935.29 2601.5,1934.5C 2609.84,1934.66 2618.18,1935 2626.5,1935.5C 2626.67,1936.82 2626.34,1937.99 2625.5,1939C 2551.53,1945.45 2477.53,1951.61 2403.5,1957.5C 2379.26,1954.77 2364.76,1941.43 2360,1917.5C 2357,1879.15 2353.83,1840.82 2350.5,1802.5C 2349.95,1784.75 2355.95,1769.92 2368.5,1758C 2372.32,1755.84 2376.15,1753.67 2380,1751.5C 2380.33,1751.83 2380.67,1752.17 2381,1752.5C 2384.12,1751.26 2387.29,1750.09 2390.5,1749C 2403.68,1747.97 2416.85,1746.8 2430,1745.5C 2433.58,1746.59 2437.08,1746.26 2440.5,1744.5C 2444.03,1734.43 2447.87,1724.43 2452,1714.5C 2458.4,1705.98 2466.57,1701.15 2476.5,1700C 2510.01,1697.49 2543.35,1694.65 2576.5,1691.5 Z"/></g>
<g><path style="opacity:0.975" fill="#fefffe" d="M 1999.5,1693.5 C 2000.83,1693.5 2002.17,1693.5 2003.5,1693.5C 2005.31,1708.15 2006.98,1722.81 2008.5,1737.5C 1983.09,1739.03 1960.09,1747.19 1939.5,1762C 1933.97,1767.2 1928.8,1772.7 1924,1778.5C 1923.5,1833.5 1923.33,1888.5 1923.5,1943.5C 1907.83,1943.5 1892.17,1943.5 1876.5,1943.5C 1876.5,1861.17 1876.5,1778.83 1876.5,1696.5C 1886.52,1696.17 1896.52,1696.5 1906.5,1697.5C 1910.58,1711.74 1915.25,1725.74 1920.5,1739.5C 1941.29,1714.61 1967.63,1699.27 1999.5,1693.5 Z"/></g>
<g><path style="opacity:0.975" fill="#fefffe" d="M 2795.5,1693.5 C 2796.83,1693.5 2798.17,1693.5 2799.5,1693.5C 2801.17,1708.16 2802.83,1722.83 2804.5,1737.5C 2779.09,1739.03 2756.09,1747.19 2735.5,1762C 2729.97,1767.2 2724.8,1772.7 2720,1778.5C 2719.5,1833.5 2719.33,1888.5 2719.5,1943.5C 2703.83,1943.5 2688.17,1943.5 2672.5,1943.5C 2672.5,1861.17 2672.5,1778.83 2672.5,1696.5C 2682.5,1696.5 2692.5,1696.5 2702.5,1696.5C 2706.37,1711.12 2711.04,1725.46 2716.5,1739.5C 2737.29,1714.61 2763.63,1699.27 2795.5,1693.5 Z"/></g>
<g><path style="opacity:0.974" fill="#fefffe" d="M 963.5,1696.5 C 979.167,1696.5 994.833,1696.5 1010.5,1696.5C 1010.33,1759.83 1010.5,1823.17 1011,1886.5C 1014.14,1898.97 1021.97,1906.81 1034.5,1910C 1060.06,1913.61 1084.06,1908.94 1106.5,1896C 1113.63,1891.7 1120.63,1887.2 1127.5,1882.5C 1128.5,1820.5 1128.83,1758.5 1128.5,1696.5C 1144.17,1696.5 1159.83,1696.5 1175.5,1696.5C 1175.5,1778.83 1175.5,1861.17 1175.5,1943.5C 1165.17,1943.5 1154.83,1943.5 1144.5,1943.5C 1140.64,1933.08 1136.47,1922.75 1132,1912.5C 1103.27,1939.63 1069.11,1952.13 1029.5,1950C 1008.34,1948.34 990.506,1939.84 976,1924.5C 969.04,1914.62 965.04,1903.62 964,1891.5C 963.5,1826.5 963.333,1761.5 963.5,1696.5 Z"/></g>
<g><path style="opacity:0.724" fill="#000100" d="M 2538.5,1923.5 C 2537.17,1922.17 2535.83,1922.17 2534.5,1923.5C 2494.9,1920.79 2469.07,1900.13 2457,1861.5C 2451.55,1834.94 2457.89,1810.6 2476,1788.5C 2504.51,1761.11 2536.51,1755.11 2572,1770.5C 2591.15,1781.27 2604.65,1796.44 2612.5,1816C 2612.26,1816.87 2611.93,1817.71 2611.5,1818.5C 2613.98,1825.54 2615.98,1832.37 2617.5,1839C 2617.22,1866.09 2606.22,1888.92 2584.5,1907.5C 2580.74,1909.46 2577.24,1911.79 2574,1914.5C 2573.67,1914.17 2573.33,1913.83 2573,1913.5C 2568.98,1916.42 2564.65,1918.75 2560,1920.5C 2559.59,1920.04 2559.09,1919.71 2558.5,1919.5C 2552.26,1922.92 2545.6,1924.25 2538.5,1923.5 Z M 2534.5,1774.5 C 2535.87,1774.34 2537.21,1774.51 2538.5,1775C 2538.17,1775.33 2537.83,1775.67 2537.5,1776C 2532.46,1776.5 2527.46,1776.84 2522.5,1777C 2526.5,1775.9 2530.5,1775.07 2534.5,1774.5 Z M 2542.5,1774.5 C 2545,1774.51 2545.17,1775.18 2543,1776.5C 2542.54,1775.91 2542.37,1775.24 2542.5,1774.5 Z M 2514.5,1778.5 C 2514.37,1777.76 2514.54,1777.09 2515,1776.5C 2515.67,1777.83 2516.33,1777.83 2517,1776.5C 2517.19,1778.06 2516.35,1778.73 2514.5,1778.5 Z M 2560.5,1778.5 C 2560.83,1779.17 2561.17,1779.83 2561.5,1780.5C 2558.54,1779.97 2558.21,1779.3 2560.5,1778.5 Z M 2539.5,1782.5 C 2547.64,1784.33 2555.64,1786.66 2563.5,1789.5C 2567.65,1792.8 2571.98,1795.97 2576.5,1799C 2590.46,1811.96 2597.79,1828.46 2598.5,1848.5C 2600.91,1848.86 2602.41,1847.86 2603,1845.5C 2603.35,1847.22 2603.85,1848.88 2604.5,1850.5C 2603.29,1853.56 2602.29,1856.56 2601.5,1859.5C 2603.02,1861.16 2602.69,1862.32 2600.5,1863C 2600.96,1863.41 2601.29,1863.91 2601.5,1864.5C 2599.87,1866.77 2598.54,1869.1 2597.5,1871.5C 2597.5,1870.5 2597.5,1869.5 2597.5,1868.5C 2598.32,1864.78 2596.99,1862.44 2593.5,1861.5C 2593.5,1860.83 2593.17,1860.5 2592.5,1860.5C 2591.83,1860.17 2591.17,1859.83 2590.5,1859.5C 2587.55,1856.21 2584.55,1852.88 2581.5,1849.5C 2582.26,1844.54 2582.09,1839.54 2581,1834.5C 2580.62,1833.94 2580.12,1833.61 2579.5,1833.5C 2579.5,1832.83 2579.5,1832.17 2579.5,1831.5C 2577.32,1821.99 2572.32,1814.32 2564.5,1808.5C 2560.22,1803.87 2555.22,1801.2 2549.5,1800.5C 2549.17,1800.5 2548.83,1800.5 2548.5,1800.5C 2547.59,1799.04 2546.26,1798.04 2544.5,1797.5C 2542.67,1797.92 2540.67,1797.92 2538.5,1797.5C 2533.03,1795.83 2527.86,1796.49 2523,1799.5C 2521.95,1798.48 2520.78,1798.32 2519.5,1799C 2516.41,1801.07 2513.08,1802.74 2509.5,1804C 2506.53,1806.29 2503.86,1808.79 2501.5,1811.5C 2500.17,1811.5 2499.5,1812.17 2499.5,1813.5C 2497.92,1814.88 2496.09,1815.88 2494,1816.5C 2488.8,1814.77 2483.3,1814.11 2477.5,1814.5C 2475.52,1815.5 2473.85,1816.83 2472.5,1818.5C 2476.42,1806.49 2483.42,1796.66 2493.5,1789C 2495.59,1788.37 2495.92,1788.87 2494.5,1790.5C 2494.87,1791.9 2495.7,1792.9 2497,1793.5C 2499.27,1792.73 2501.1,1791.4 2502.5,1789.5C 2503.09,1789.71 2503.59,1790.04 2504,1790.5C 2507.45,1788.52 2510.95,1786.69 2514.5,1785C 2522.85,1784.1 2531.19,1783.27 2539.5,1782.5 Z M 2568.5,1783.5 C 2570.86,1784.09 2573.02,1785.09 2575,1786.5C 2576.31,1787.13 2577.14,1788.13 2577.5,1789.5C 2573.83,1788.39 2570.83,1786.39 2568.5,1783.5 Z M 2584.5,1796.5 C 2582.92,1796 2582.42,1795 2583,1793.5C 2584.04,1794.24 2584.54,1795.24 2584.5,1796.5 Z M 2585.5,1797.5 C 2588.62,1798.29 2590.29,1800.29 2590.5,1803.5C 2588.86,1801.52 2587.2,1799.52 2585.5,1797.5 Z M 2592.5,1805.5 C 2594.33,1806.14 2594.67,1807.14 2593.5,1808.5C 2592.61,1807.68 2592.28,1806.68 2592.5,1805.5 Z M 2544.5,1808.5 C 2545.61,1808.56 2546.61,1808.89 2547.5,1809.5C 2556.91,1813.29 2563.91,1819.29 2568.5,1827.5C 2567.16,1829.37 2567.66,1830.71 2570,1831.5C 2570.49,1833.13 2570.66,1834.8 2570.5,1836.5C 2571.52,1842.06 2571.52,1847.39 2570.5,1852.5C 2570.5,1852.83 2570.5,1853.17 2570.5,1853.5C 2568.77,1854.01 2568.43,1854.84 2569.5,1856C 2567.41,1858.68 2565.75,1861.52 2564.5,1864.5C 2558.96,1870.1 2552.62,1874.43 2545.5,1877.5C 2538.53,1878.6 2531.86,1878.6 2525.5,1877.5C 2524.4,1876.4 2523.06,1875.73 2521.5,1875.5C 2518.36,1873.76 2515.36,1871.76 2512.5,1869.5C 2509.84,1866.88 2507.18,1864.21 2504.5,1861.5C 2504.01,1858.53 2502.84,1855.87 2501,1853.5C 2500.5,1850.52 2500.34,1847.52 2500.5,1844.5C 2500.38,1842.8 2500.05,1841.13 2499.5,1839.5C 2501.11,1836.39 2502.11,1833.05 2502.5,1829.5C 2504.13,1825.89 2506.13,1822.55 2508.5,1819.5C 2514.36,1814.34 2521.03,1810.34 2528.5,1807.5C 2531.62,1808.52 2534.79,1808.52 2538,1807.5C 2540.26,1807.44 2542.26,1808.11 2544,1809.5C 2544.4,1809.27 2544.57,1808.94 2544.5,1808.5 Z M 2596.5,1813.5 C 2595.15,1812.47 2594.65,1811.14 2595,1809.5C 2596.19,1810.56 2596.69,1811.9 2596.5,1813.5 Z M 2596.5,1813.5 C 2598.03,1813.52 2598.53,1814.18 2598,1815.5C 2597.28,1814.96 2596.78,1814.29 2596.5,1813.5 Z M 2597.5,1818.5 C 2598.19,1817.23 2599.02,1817.23 2600,1818.5C 2600.67,1819.5 2600.67,1820.5 2600,1821.5C 2599.62,1820.06 2598.79,1819.06 2597.5,1818.5 Z M 2472.5,1818.5 C 2472.48,1820.56 2472.15,1822.56 2471.5,1824.5C 2470.78,1824.92 2470.28,1825.58 2470,1826.5C 2469.82,1824.51 2469.99,1822.51 2470.5,1820.5C 2471.17,1819.83 2471.83,1819.17 2472.5,1818.5 Z M 2600.5,1823.5 C 2602.34,1823.64 2602.67,1824.31 2601.5,1825.5C 2600.7,1825.04 2600.37,1824.38 2600.5,1823.5 Z M 2470.5,1831.5 C 2469.88,1831.61 2469.38,1831.94 2469,1832.5C 2468.72,1831.58 2468.22,1830.92 2467.5,1830.5C 2469.77,1826.26 2470.77,1826.59 2470.5,1831.5 Z M 2601.5,1831.5 C 2603.1,1832.8 2603.6,1834.47 2603,1836.5C 2601.73,1835.1 2601.23,1833.43 2601.5,1831.5 Z M 2469.5,1835.5 C 2467.65,1836.61 2467.15,1835.95 2468,1833.5C 2468.72,1834.04 2469.22,1834.71 2469.5,1835.5 Z M 2469.5,1854.5 C 2468.39,1850.34 2467.89,1846 2468,1841.5C 2469.43,1845.63 2469.93,1849.97 2469.5,1854.5 Z M 2472.5,1867.5 C 2470.35,1867.3 2470.19,1866.3 2472,1864.5C 2472.48,1865.45 2472.65,1866.45 2472.5,1867.5 Z M 2476.5,1876.5 C 2474.6,1874.96 2473.76,1872.96 2474,1870.5C 2475.66,1872.16 2476.5,1874.16 2476.5,1876.5 Z M 2596.5,1872.5 C 2596.77,1874.38 2596.1,1875.71 2594.5,1876.5C 2594.23,1874.62 2594.9,1873.29 2596.5,1872.5 Z M 2477.5,1877.5 C 2480.9,1880.63 2483.56,1884.29 2485.5,1888.5C 2482.8,1886.17 2480.3,1883.51 2478,1880.5C 2477.52,1879.55 2477.35,1878.55 2477.5,1877.5 Z M 2591.5,1881.5 C 2590.19,1884.47 2588.19,1886.81 2585.5,1888.5C 2586.76,1885.57 2588.76,1883.24 2591.5,1881.5 Z M 2486.5,1889.5 C 2487.5,1889.83 2488.17,1890.5 2488.5,1891.5C 2487.17,1891.5 2486.5,1890.83 2486.5,1889.5 Z M 2584.5,1889.5 C 2584.5,1891.5 2583.5,1892.5 2581.5,1892.5C 2582.17,1891.17 2583.17,1890.17 2584.5,1889.5 Z M 2488.5,1891.5 C 2489.83,1891.5 2490.5,1892.17 2490.5,1893.5C 2489.5,1893.17 2488.83,1892.5 2488.5,1891.5 Z M 2490.5,1893.5 C 2492.4,1893.74 2493.74,1894.74 2494.5,1896.5C 2492.6,1896.26 2491.26,1895.26 2490.5,1893.5 Z M 2494.5,1896.5 C 2495.83,1896.5 2496.5,1897.17 2496.5,1898.5C 2495.5,1898.17 2494.83,1897.5 2494.5,1896.5 Z M 2496.5,1898.5 C 2497.76,1898.46 2498.76,1898.96 2499.5,1900C 2498,1900.58 2497,1900.08 2496.5,1898.5 Z M 2574.5,1898.5 C 2574.48,1900.03 2573.82,1900.53 2572.5,1900C 2573.04,1899.28 2573.71,1898.78 2574.5,1898.5 Z M 2569.5,1901.5 C 2569.64,1899.66 2570.31,1899.33 2571.5,1900.5C 2571.04,1901.3 2570.38,1901.63 2569.5,1901.5 Z M 2501.5,1901.5 C 2502.49,1901.33 2503.16,1901.66 2503.5,1902.5C 2502.08,1904.03 2501.41,1903.7 2501.5,1901.5 Z M 2558.5,1905.5 C 2559.77,1906.08 2559.77,1906.74 2558.5,1907.5C 2557.54,1907.03 2557.54,1906.36 2558.5,1905.5 Z"/></g>
<g><path style="opacity:0.815" fill="#000000" d="M 2416.5,1775.5 C 2425.29,1774.96 2430.62,1778.96 2432.5,1787.5C 2432.06,1789.1 2431.39,1790.6 2430.5,1792C 2431.13,1795.77 2429.47,1798.44 2425.5,1800C 2416.63,1800.63 2407.8,1801.46 2399,1802.5C 2390.55,1797.56 2388.38,1790.56 2392.5,1781.5C 2394.03,1780.14 2395.7,1778.97 2397.5,1778C 2403.98,1777.14 2410.31,1776.3 2416.5,1775.5 Z"/></g>
<g><path style="opacity:0.959" fill="#01100c" d="M 2560.5,1778.5 C 2558.21,1779.3 2558.54,1779.97 2561.5,1780.5C 2562.21,1781.4 2563.21,1781.74 2564.5,1781.5C 2564.5,1782.17 2564.83,1782.5 2565.5,1782.5C 2566.9,1785.74 2568.9,1788.57 2571.5,1791C 2570.58,1791.37 2569.75,1791.87 2569,1792.5C 2567.51,1790.84 2565.68,1789.84 2563.5,1789.5C 2555.64,1786.66 2547.64,1784.33 2539.5,1782.5C 2538.44,1781.42 2538.44,1780.42 2539.5,1779.5C 2542.61,1777.82 2545.95,1777.15 2549.5,1777.5C 2552.63,1778.82 2554.3,1778.82 2554.5,1777.5C 2553.06,1776.57 2551.73,1775.4 2550.5,1774C 2553.61,1771.15 2557.28,1769.98 2561.5,1770.5C 2561.08,1773.32 2562.08,1775.49 2564.5,1777C 2563.44,1778.19 2562.1,1778.69 2560.5,1778.5 Z"/></g>
<g><path style="opacity:0.976" fill="#0b211e" d="M 2538.5,1797.5 C 2535.06,1798.75 2531.39,1799.58 2527.5,1800C 2518.62,1803.35 2509.95,1807.18 2501.5,1811.5C 2503.86,1808.79 2506.53,1806.29 2509.5,1804C 2513.08,1802.74 2516.41,1801.07 2519.5,1799C 2520.78,1798.32 2521.95,1798.48 2523,1799.5C 2527.86,1796.49 2533.03,1795.83 2538.5,1797.5 Z"/></g>
<g><path style="opacity:0.992" fill="#346261" d="M 2548.5,1800.5 C 2548.83,1800.5 2549.17,1800.5 2549.5,1800.5C 2551.13,1801.99 2552.79,1803.49 2554.5,1805C 2555.46,1807.12 2555.63,1809.29 2555,1811.5C 2552.7,1810.13 2550.2,1809.47 2547.5,1809.5C 2546.61,1808.89 2545.61,1808.56 2544.5,1808.5C 2544.39,1807.88 2544.06,1807.38 2543.5,1807C 2539.68,1806.77 2536.01,1805.93 2532.5,1804.5C 2537.48,1801.73 2542.81,1800.4 2548.5,1800.5 Z"/></g>
<g><path style="opacity:0.918" fill="#173734" d="M 2538.5,1797.5 C 2540.67,1797.92 2542.67,1797.92 2544.5,1797.5C 2546.26,1798.04 2547.59,1799.04 2548.5,1800.5C 2542.81,1800.4 2537.48,1801.73 2532.5,1804.5C 2536.01,1805.93 2539.68,1806.77 2543.5,1807C 2544.06,1807.38 2544.39,1807.88 2544.5,1808.5C 2544.57,1808.94 2544.4,1809.27 2544,1809.5C 2542.26,1808.11 2540.26,1807.44 2538,1807.5C 2534.79,1808.52 2531.62,1808.52 2528.5,1807.5C 2521.03,1810.34 2514.36,1814.34 2508.5,1819.5C 2508.5,1817.83 2508.5,1816.17 2508.5,1814.5C 2509.82,1814.33 2510.99,1814.66 2512,1815.5C 2512.17,1815.17 2512.33,1814.83 2512.5,1814.5C 2511.5,1814.17 2510.5,1813.83 2509.5,1813.5C 2505.88,1815.7 2501.88,1817.03 2497.5,1817.5C 2498.6,1816.4 2499.27,1815.06 2499.5,1813.5C 2499.5,1812.17 2500.17,1811.5 2501.5,1811.5C 2509.95,1807.18 2518.62,1803.35 2527.5,1800C 2531.39,1799.58 2535.06,1798.75 2538.5,1797.5 Z"/></g>
<g><path style="opacity:0.161" fill="#152425" d="M 2535.5,1824.5 C 2533.5,1824.5 2531.5,1824.5 2529.5,1824.5C 2530.64,1823.66 2531.97,1822.99 2533.5,1822.5C 2534.52,1822.86 2535.19,1823.52 2535.5,1824.5 Z"/></g>
<g><path style="opacity:0.494" fill="#3c6568" d="M 2529.5,1824.5 C 2531.5,1824.5 2533.5,1824.5 2535.5,1824.5C 2536.38,1824.37 2537.04,1824.7 2537.5,1825.5C 2537.01,1827.03 2536.34,1828.36 2535.5,1829.5C 2535.5,1828.17 2535.5,1826.83 2535.5,1825.5C 2531.81,1826.06 2528.14,1826.73 2524.5,1827.5C 2525.66,1825.75 2527.33,1824.75 2529.5,1824.5 Z"/></g>
<g><path style="opacity:0.988" fill="#102a28" d="M 2564.5,1808.5 C 2572.32,1814.32 2577.32,1821.99 2579.5,1831.5C 2578.17,1831.5 2576.83,1831.5 2575.5,1831.5C 2573.2,1824.9 2569.87,1818.9 2565.5,1813.5C 2565.71,1812.91 2566.04,1812.41 2566.5,1812C 2565.18,1811.18 2564.51,1810.02 2564.5,1808.5 Z"/></g>
<g><path style="opacity:0.231" fill="#1d3637" d="M 2550.5,1831.5 C 2549.04,1831.43 2547.71,1831.77 2546.5,1832.5C 2547.24,1829.12 2548.58,1828.78 2550.5,1831.5 Z"/></g>
<g><path style="opacity:0.828" fill="#1c403f" d="M 2564.5,1808.5 C 2564.51,1810.02 2565.18,1811.18 2566.5,1812C 2566.04,1812.41 2565.71,1812.91 2565.5,1813.5C 2569.87,1818.9 2573.2,1824.9 2575.5,1831.5C 2576.83,1831.5 2578.17,1831.5 2579.5,1831.5C 2579.5,1832.17 2579.5,1832.83 2579.5,1833.5C 2579.53,1839.05 2580.19,1844.38 2581.5,1849.5C 2584.55,1852.88 2587.55,1856.21 2590.5,1859.5C 2590.5,1860.83 2590.5,1862.17 2590.5,1863.5C 2583.43,1865.04 2577.1,1868.2 2571.5,1873C 2569.21,1873.82 2566.88,1874.49 2564.5,1875C 2560.42,1880.04 2555.09,1883.04 2548.5,1884C 2539.29,1889.1 2529.96,1893.94 2520.5,1898.5C 2517.64,1894.79 2515.31,1890.79 2513.5,1886.5C 2516.1,1888.78 2518.44,1891.45 2520.5,1894.5C 2522.98,1893.1 2525.65,1892.27 2528.5,1892C 2536.35,1888.24 2544.02,1884.24 2551.5,1880C 2552.31,1878.69 2553.31,1877.52 2554.5,1876.5C 2554,1876.17 2553.5,1875.83 2553,1875.5C 2550.5,1876.25 2548,1876.92 2545.5,1877.5C 2552.62,1874.43 2558.96,1870.1 2564.5,1864.5C 2563.44,1867.73 2561.44,1870.23 2558.5,1872C 2559,1872.5 2559.5,1873 2560,1873.5C 2565.3,1872.85 2569.47,1870.35 2572.5,1866C 2576.14,1863.34 2580.14,1861.51 2584.5,1860.5C 2581.73,1855.82 2579.4,1850.82 2577.5,1845.5C 2577.71,1844.91 2578.04,1844.41 2578.5,1844C 2575.57,1842.08 2573.91,1839.42 2573.5,1836C 2572.42,1835.53 2571.42,1835.7 2570.5,1836.5C 2570.66,1834.8 2570.49,1833.13 2570,1831.5C 2567.66,1830.71 2567.16,1829.37 2568.5,1827.5C 2563.91,1819.29 2556.91,1813.29 2547.5,1809.5C 2550.2,1809.47 2552.7,1810.13 2555,1811.5C 2555.63,1809.29 2555.46,1807.12 2554.5,1805C 2552.79,1803.49 2551.13,1801.99 2549.5,1800.5C 2555.22,1801.2 2560.22,1803.87 2564.5,1808.5 Z"/></g>
<g><path style="opacity:1" fill="#315e5e" d="M 2502.5,1829.5 C 2502.11,1833.05 2501.11,1836.39 2499.5,1839.5C 2500.05,1841.13 2500.38,1842.8 2500.5,1844.5C 2499.69,1846.29 2499.19,1848.29 2499,1850.5C 2498.67,1850.17 2498.33,1849.83 2498,1849.5C 2495.78,1842.76 2492.95,1836.26 2489.5,1830C 2493.14,1827.21 2497.14,1825.04 2501.5,1823.5C 2502.06,1825.65 2502.39,1827.65 2502.5,1829.5 Z"/></g>
<g><path style="opacity:0.031" fill="#011413" d="M 2551.5,1831.5 C 2553.11,1832.01 2553.44,1832.67 2552.5,1833.5C 2551.66,1833.16 2551.33,1832.49 2551.5,1831.5 Z"/></g>
<g><path style="opacity:0.447" fill="#3e6a6b" d="M 2521.5,1830.5 C 2520.57,1833.93 2519.4,1837.26 2518,1840.5C 2517.5,1843.48 2517.34,1846.48 2517.5,1849.5C 2515.8,1847.15 2515.3,1844.48 2516,1841.5C 2516.43,1837.01 2518.26,1833.34 2521.5,1830.5 Z"/></g>
<g><path style="opacity:0.006" fill="#11181b" d="M 2540.5,1836.5 C 2539.83,1836.5 2539.17,1836.5 2538.5,1836.5C 2537.83,1836.5 2537.5,1836.17 2537.5,1835.5C 2537.43,1835.06 2537.6,1834.73 2538,1834.5C 2538.99,1835.07 2539.83,1835.73 2540.5,1836.5 Z"/></g>
<g><path style="opacity:0.993" fill="#5a9398" d="M 2550.5,1831.5 C 2550.83,1831.5 2551.17,1831.5 2551.5,1831.5C 2551.33,1832.49 2551.66,1833.16 2552.5,1833.5C 2553.17,1834.83 2553.83,1836.17 2554.5,1837.5C 2554.74,1841.93 2554.74,1846.09 2554.5,1850C 2551.88,1855.78 2547.55,1859.62 2541.5,1861.5C 2541.39,1860.88 2541.06,1860.38 2540.5,1860C 2542.12,1859.76 2543.12,1858.93 2543.5,1857.5C 2544.57,1856.57 2545.9,1856.23 2547.5,1856.5C 2547.5,1855.17 2547.5,1853.83 2547.5,1852.5C 2551.13,1852.84 2552.8,1851.18 2552.5,1847.5C 2551.76,1843.29 2550.43,1839.29 2548.5,1835.5C 2546.15,1837.23 2543.48,1837.9 2540.5,1837.5C 2539.83,1837.5 2539.17,1837.5 2538.5,1837.5C 2538.5,1837.17 2538.5,1836.83 2538.5,1836.5C 2539.17,1836.5 2539.83,1836.5 2540.5,1836.5C 2543.2,1836.16 2545.2,1834.82 2546.5,1832.5C 2547.71,1831.77 2549.04,1831.43 2550.5,1831.5 Z"/></g>
<g><path style="opacity:1" fill="#021814" d="M 2499.5,1813.5 C 2499.27,1815.06 2498.6,1816.4 2497.5,1817.5C 2496.51,1817.33 2495.84,1817.66 2495.5,1818.5C 2489.37,1818.37 2483.37,1819.2 2477.5,1821C 2476.48,1822.68 2475.48,1824.34 2474.5,1826C 2476.08,1833.07 2478.25,1839.9 2481,1846.5C 2482,1847.17 2483,1847.83 2484,1848.5C 2485.54,1853.26 2487.21,1857.92 2489,1862.5C 2491.44,1864.03 2493.44,1866.03 2495,1868.5C 2499.44,1876.48 2503.11,1884.81 2506,1893.5C 2507.66,1897.49 2509.83,1901.16 2512.5,1904.5C 2511.5,1904.5 2510.5,1904.5 2509.5,1904.5C 2509.17,1903.83 2508.83,1903.17 2508.5,1902.5C 2507.18,1899.19 2505.35,1896.19 2503,1893.5C 2499.79,1887.08 2497.13,1880.41 2495,1873.5C 2487.13,1863.1 2480.8,1851.77 2476,1839.5C 2475,1838.5 2474,1837.5 2473,1836.5C 2472.17,1832.53 2471.67,1828.53 2471.5,1824.5C 2472.15,1822.56 2472.48,1820.56 2472.5,1818.5C 2473.85,1816.83 2475.52,1815.5 2477.5,1814.5C 2483.3,1814.11 2488.8,1814.77 2494,1816.5C 2496.09,1815.88 2497.92,1814.88 2499.5,1813.5 Z"/></g>
<g><path style="opacity:0.371" fill="#112624" d="M 2579.5,1833.5 C 2580.12,1833.61 2580.62,1833.94 2581,1834.5C 2582.09,1839.54 2582.26,1844.54 2581.5,1849.5C 2580.19,1844.38 2579.53,1839.05 2579.5,1833.5 Z"/></g>
<g><path style="opacity:1" fill="#7eced6" d="M 2536.5,1834.5 C 2536.5,1835.17 2536.83,1835.5 2537.5,1835.5C 2537.5,1836.17 2537.83,1836.5 2538.5,1836.5C 2538.5,1836.83 2538.5,1837.17 2538.5,1837.5C 2537.03,1837.11 2535.53,1836.77 2534,1836.5C 2532.16,1838.16 2529.99,1839.16 2527.5,1839.5C 2529.16,1853.18 2535.66,1856.18 2547,1848.5C 2546.59,1844.91 2545.42,1841.58 2543.5,1838.5C 2542.21,1838.74 2541.21,1838.4 2540.5,1837.5C 2543.48,1837.9 2546.15,1837.23 2548.5,1835.5C 2550.43,1839.29 2551.76,1843.29 2552.5,1847.5C 2552.8,1851.18 2551.13,1852.84 2547.5,1852.5C 2547.5,1853.83 2547.5,1855.17 2547.5,1856.5C 2545.9,1856.23 2544.57,1856.57 2543.5,1857.5C 2539.15,1858.7 2534.81,1859.03 2530.5,1858.5C 2528.36,1853.61 2525.53,1848.61 2522,1843.5C 2521.26,1841.56 2521.42,1839.73 2522.5,1838C 2524.62,1837.74 2526.28,1836.74 2527.5,1835C 2530.48,1834.5 2533.48,1834.34 2536.5,1834.5 Z"/></g>
<g><path style="opacity:1" fill="#6fb7be" d="M 2535.5,1829.5 C 2535.63,1831.22 2535.96,1832.88 2536.5,1834.5C 2533.48,1834.34 2530.48,1834.5 2527.5,1835C 2526.28,1836.74 2524.62,1837.74 2522.5,1838C 2521.42,1839.73 2521.26,1841.56 2522,1843.5C 2525.53,1848.61 2528.36,1853.61 2530.5,1858.5C 2534.81,1859.03 2539.15,1858.7 2543.5,1857.5C 2543.12,1858.93 2542.12,1859.76 2540.5,1860C 2541.06,1860.38 2541.39,1860.88 2541.5,1861.5C 2541.17,1861.5 2540.83,1861.5 2540.5,1861.5C 2537.5,1861.5 2534.5,1861.5 2531.5,1861.5C 2531.17,1861.5 2530.83,1861.5 2530.5,1861.5C 2528.97,1859.75 2526.97,1858.75 2524.5,1858.5C 2523.83,1858.5 2523.5,1858.17 2523.5,1857.5C 2521.96,1854.4 2519.96,1851.73 2517.5,1849.5C 2517.34,1846.48 2517.5,1843.48 2518,1840.5C 2519.4,1837.26 2520.57,1833.93 2521.5,1830.5C 2522.1,1829.1 2523.1,1828.1 2524.5,1827.5C 2528.14,1826.73 2531.81,1826.06 2535.5,1825.5C 2535.5,1826.83 2535.5,1828.17 2535.5,1829.5 Z"/></g>
<g><path style="opacity:1" fill="#8ce0e9" d="M 2538.5,1837.5 C 2539.17,1837.5 2539.83,1837.5 2540.5,1837.5C 2541.21,1838.4 2542.21,1838.74 2543.5,1838.5C 2545.42,1841.58 2546.59,1844.91 2547,1848.5C 2535.66,1856.18 2529.16,1853.18 2527.5,1839.5C 2529.99,1839.16 2532.16,1838.16 2534,1836.5C 2535.53,1836.77 2537.03,1837.11 2538.5,1837.5 Z"/></g>
<g><path style="opacity:0.998" fill="#2a5453" d="M 2564.5,1864.5 C 2565.75,1861.52 2567.41,1858.68 2569.5,1856C 2568.43,1854.84 2568.77,1854.01 2570.5,1853.5C 2569.69,1857.21 2568.69,1860.88 2567.5,1864.5C 2571.13,1862.08 2575.13,1860.25 2579.5,1859C 2580.02,1858.44 2580.36,1857.77 2580.5,1857C 2578.47,1852.44 2576.3,1847.94 2574,1843.5C 2573.14,1846.69 2571.97,1849.69 2570.5,1852.5C 2571.52,1847.39 2571.52,1842.06 2570.5,1836.5C 2571.42,1835.7 2572.42,1835.53 2573.5,1836C 2573.91,1839.42 2575.57,1842.08 2578.5,1844C 2578.04,1844.41 2577.71,1844.91 2577.5,1845.5C 2579.4,1850.82 2581.73,1855.82 2584.5,1860.5C 2580.14,1861.51 2576.14,1863.34 2572.5,1866C 2569.47,1870.35 2565.3,1872.85 2560,1873.5C 2559.5,1873 2559,1872.5 2558.5,1872C 2561.44,1870.23 2563.44,1867.73 2564.5,1864.5 Z"/></g>
<g><path style="opacity:1" fill="#000b08" d="M 2470.5,1820.5 C 2469.99,1822.51 2469.82,1824.51 2470,1826.5C 2470.28,1825.58 2470.78,1824.92 2471.5,1824.5C 2471.67,1828.53 2472.17,1832.53 2473,1836.5C 2474,1837.5 2475,1838.5 2476,1839.5C 2480.8,1851.77 2487.13,1863.1 2495,1873.5C 2497.13,1880.41 2499.79,1887.08 2503,1893.5C 2505.35,1896.19 2507.18,1899.19 2508.5,1902.5C 2507.5,1902.5 2506.5,1902.5 2505.5,1902.5C 2501.55,1897.82 2498.05,1892.82 2495,1887.5C 2492.33,1881.5 2489.67,1875.5 2487,1869.5C 2483.5,1862.5 2479.5,1855.84 2475,1849.5C 2472.89,1844.95 2471.06,1840.28 2469.5,1835.5C 2470.43,1834.43 2470.77,1833.1 2470.5,1831.5C 2470.77,1826.59 2469.77,1826.26 2467.5,1830.5C 2466.5,1830.59 2465.67,1830.25 2465,1829.5C 2464.11,1826.72 2462.94,1824.05 2461.5,1821.5C 2463.71,1818.8 2466.54,1817.13 2470,1816.5C 2470.06,1818.11 2470.23,1819.45 2470.5,1820.5 Z"/></g>
<g><path style="opacity:0.478" fill="#3f6f70" d="M 2517.5,1849.5 C 2519.96,1851.73 2521.96,1854.4 2523.5,1857.5C 2520.56,1855.66 2518.56,1852.99 2517.5,1849.5 Z"/></g>
<g><path style="opacity:0.99" fill="#214745" d="M 2508.5,1819.5 C 2506.13,1822.55 2504.13,1825.89 2502.5,1829.5C 2502.39,1827.65 2502.06,1825.65 2501.5,1823.5C 2497.14,1825.04 2493.14,1827.21 2489.5,1830C 2492.95,1836.26 2495.78,1842.76 2498,1849.5C 2498.33,1849.83 2498.67,1850.17 2499,1850.5C 2499.19,1848.29 2499.69,1846.29 2500.5,1844.5C 2500.34,1847.52 2500.5,1850.52 2501,1853.5C 2502.84,1855.87 2504.01,1858.53 2504.5,1861.5C 2504.88,1863.26 2505.54,1864.92 2506.5,1866.5C 2504.74,1867.75 2503.24,1867.42 2502,1865.5C 2500.6,1862.37 2498.93,1859.37 2497,1856.5C 2495.97,1852.39 2494.64,1848.39 2493,1844.5C 2492.09,1842.56 2490.59,1841.56 2488.5,1841.5C 2487.18,1837.84 2485.85,1834.17 2484.5,1830.5C 2484.61,1828.29 2485.28,1826.29 2486.5,1824.5C 2489.03,1821.77 2492.03,1819.77 2495.5,1818.5C 2495.84,1817.66 2496.51,1817.33 2497.5,1817.5C 2501.88,1817.03 2505.88,1815.7 2509.5,1813.5C 2510.5,1813.83 2511.5,1814.17 2512.5,1814.5C 2512.33,1814.83 2512.17,1815.17 2512,1815.5C 2510.99,1814.66 2509.82,1814.33 2508.5,1814.5C 2508.5,1816.17 2508.5,1817.83 2508.5,1819.5 Z"/></g>
<g><path style="opacity:0.999" fill="#376868" d="M 2570.5,1853.5 C 2570.5,1853.17 2570.5,1852.83 2570.5,1852.5C 2571.97,1849.69 2573.14,1846.69 2574,1843.5C 2576.3,1847.94 2578.47,1852.44 2580.5,1857C 2580.36,1857.77 2580.02,1858.44 2579.5,1859C 2575.13,1860.25 2571.13,1862.08 2567.5,1864.5C 2568.69,1860.88 2569.69,1857.21 2570.5,1853.5 Z"/></g>
<g><path style="opacity:0.086" fill="#274146" d="M 2524.5,1858.5 C 2526.97,1858.75 2528.97,1859.75 2530.5,1861.5C 2527.91,1861.54 2525.91,1860.54 2524.5,1858.5 Z"/></g>
<g><path style="opacity:1" fill="#123431" d="M 2486.5,1824.5 C 2485.28,1826.29 2484.61,1828.29 2484.5,1830.5C 2485.85,1834.17 2487.18,1837.84 2488.5,1841.5C 2490.59,1841.56 2492.09,1842.56 2493,1844.5C 2494.64,1848.39 2495.97,1852.39 2497,1856.5C 2498.93,1859.37 2500.6,1862.37 2502,1865.5C 2503.24,1867.42 2504.74,1867.75 2506.5,1866.5C 2505.54,1864.92 2504.88,1863.26 2504.5,1861.5C 2507.18,1864.21 2509.84,1866.88 2512.5,1869.5C 2511.07,1869.58 2509.74,1869.25 2508.5,1868.5C 2507.35,1871.45 2507.18,1874.45 2508,1877.5C 2510.3,1880.3 2512.14,1883.3 2513.5,1886.5C 2515.31,1890.79 2517.64,1894.79 2520.5,1898.5C 2529.96,1893.94 2539.29,1889.1 2548.5,1884C 2555.09,1883.04 2560.42,1880.04 2564.5,1875C 2566.88,1874.49 2569.21,1873.82 2571.5,1873C 2577.1,1868.2 2583.43,1865.04 2590.5,1863.5C 2590.5,1862.17 2590.5,1860.83 2590.5,1859.5C 2591.17,1859.83 2591.83,1860.17 2592.5,1860.5C 2592.71,1862.14 2592.38,1863.64 2591.5,1865C 2588.5,1866.17 2585.5,1867.34 2582.5,1868.5C 2578.36,1871.08 2574.36,1873.91 2570.5,1877C 2565.68,1879.46 2560.68,1881.46 2555.5,1883C 2552.36,1885.99 2548.69,1887.83 2544.5,1888.5C 2544.68,1890.98 2543.68,1892.81 2541.5,1894C 2533.87,1897.93 2526.21,1901.76 2518.5,1905.5C 2517.56,1905.39 2516.72,1905.06 2516,1904.5C 2514.83,1901.5 2513.17,1898.83 2511,1896.5C 2509.9,1892.58 2509.23,1888.58 2509,1884.5C 2506.68,1880.89 2504.02,1877.56 2501,1874.5C 2500.67,1872.5 2500.33,1870.5 2500,1868.5C 2496.36,1864.98 2494.36,1860.65 2494,1855.5C 2491.29,1853.37 2489.29,1850.71 2488,1847.5C 2485.84,1840.88 2483.68,1834.22 2481.5,1827.5C 2482.36,1825.23 2484.03,1824.23 2486.5,1824.5 Z"/></g>
<g><path style="opacity:1" fill="#011410" d="M 2593.5,1861.5 C 2596.99,1862.44 2598.32,1864.78 2597.5,1868.5C 2594.52,1869.83 2593.19,1872.16 2593.5,1875.5C 2587.43,1878.28 2581.27,1880.95 2575,1883.5C 2570.05,1887.06 2564.89,1890.22 2559.5,1893C 2557.53,1893.5 2555.53,1893.66 2553.5,1893.5C 2553.5,1894.5 2553.5,1895.5 2553.5,1896.5C 2544.48,1899.36 2536.48,1903.69 2529.5,1909.5C 2527.19,1909.01 2524.86,1908.67 2522.5,1908.5C 2522.5,1908.17 2522.5,1907.83 2522.5,1907.5C 2524.25,1905.78 2526.25,1904.28 2528.5,1903C 2540.5,1898.83 2551.83,1893.33 2562.5,1886.5C 2563.26,1885.37 2563.93,1884.21 2564.5,1883C 2574.63,1879.1 2584.29,1874.44 2593.5,1869C 2594.36,1868.31 2595.02,1867.48 2595.5,1866.5C 2594,1865.16 2593.33,1863.49 2593.5,1861.5 Z"/></g>
<g><path style="opacity:1" fill="#072420" d="M 2495.5,1818.5 C 2492.03,1819.77 2489.03,1821.77 2486.5,1824.5C 2484.03,1824.23 2482.36,1825.23 2481.5,1827.5C 2483.68,1834.22 2485.84,1840.88 2488,1847.5C 2489.29,1850.71 2491.29,1853.37 2494,1855.5C 2494.36,1860.65 2496.36,1864.98 2500,1868.5C 2500.33,1870.5 2500.67,1872.5 2501,1874.5C 2504.02,1877.56 2506.68,1880.89 2509,1884.5C 2509.23,1888.58 2509.9,1892.58 2511,1896.5C 2513.17,1898.83 2514.83,1901.5 2516,1904.5C 2516.72,1905.06 2517.56,1905.39 2518.5,1905.5C 2526.21,1901.76 2533.87,1897.93 2541.5,1894C 2543.68,1892.81 2544.68,1890.98 2544.5,1888.5C 2548.69,1887.83 2552.36,1885.99 2555.5,1883C 2560.68,1881.46 2565.68,1879.46 2570.5,1877C 2574.36,1873.91 2578.36,1871.08 2582.5,1868.5C 2585.5,1867.34 2588.5,1866.17 2591.5,1865C 2592.38,1863.64 2592.71,1862.14 2592.5,1860.5C 2593.17,1860.5 2593.5,1860.83 2593.5,1861.5C 2593.33,1863.49 2594,1865.16 2595.5,1866.5C 2595.02,1867.48 2594.36,1868.31 2593.5,1869C 2584.29,1874.44 2574.63,1879.1 2564.5,1883C 2563.93,1884.21 2563.26,1885.37 2562.5,1886.5C 2551.83,1893.33 2540.5,1898.83 2528.5,1903C 2526.25,1904.28 2524.25,1905.78 2522.5,1907.5C 2519.9,1906.73 2517.24,1906.4 2514.5,1906.5C 2514.17,1905.5 2513.5,1904.83 2512.5,1904.5C 2509.83,1901.16 2507.66,1897.49 2506,1893.5C 2503.11,1884.81 2499.44,1876.48 2495,1868.5C 2493.44,1866.03 2491.44,1864.03 2489,1862.5C 2487.21,1857.92 2485.54,1853.26 2484,1848.5C 2483,1847.83 2482,1847.17 2481,1846.5C 2478.25,1839.9 2476.08,1833.07 2474.5,1826C 2475.48,1824.34 2476.48,1822.68 2477.5,1821C 2483.37,1819.2 2489.37,1818.37 2495.5,1818.5 Z"/></g>
<g><path style="opacity:1" fill="#254e4d" d="M 2512.5,1869.5 C 2515.36,1871.76 2518.36,1873.76 2521.5,1875.5C 2519.83,1875.5 2518.17,1875.5 2516.5,1875.5C 2516.58,1876.93 2516.25,1878.26 2515.5,1879.5C 2517.16,1883.49 2519.33,1887.15 2522,1890.5C 2526.8,1888.01 2531.63,1885.51 2536.5,1883C 2532,1883.93 2531.67,1883.27 2535.5,1881C 2531.89,1880.3 2528.56,1879.13 2525.5,1877.5C 2531.86,1878.6 2538.53,1878.6 2545.5,1877.5C 2548,1876.92 2550.5,1876.25 2553,1875.5C 2553.5,1875.83 2554,1876.17 2554.5,1876.5C 2553.31,1877.52 2552.31,1878.69 2551.5,1880C 2544.02,1884.24 2536.35,1888.24 2528.5,1892C 2525.65,1892.27 2522.98,1893.1 2520.5,1894.5C 2518.44,1891.45 2516.1,1888.78 2513.5,1886.5C 2512.14,1883.3 2510.3,1880.3 2508,1877.5C 2507.18,1874.45 2507.35,1871.45 2508.5,1868.5C 2509.74,1869.25 2511.07,1869.58 2512.5,1869.5 Z"/></g>
<g><path style="opacity:1" fill="#336362" d="M 2521.5,1875.5 C 2523.06,1875.73 2524.4,1876.4 2525.5,1877.5C 2528.56,1879.13 2531.89,1880.3 2535.5,1881C 2531.67,1883.27 2532,1883.93 2536.5,1883C 2531.63,1885.51 2526.8,1888.01 2522,1890.5C 2519.33,1887.15 2517.16,1883.49 2515.5,1879.5C 2516.25,1878.26 2516.58,1876.93 2516.5,1875.5C 2518.17,1875.5 2519.83,1875.5 2521.5,1875.5 Z"/></g>
<g><path style="opacity:0.067" fill="#1e3637" d="M 2531.5,1861.5 C 2534.5,1861.5 2537.5,1861.5 2540.5,1861.5C 2537.5,1864.17 2534.5,1864.17 2531.5,1861.5 Z"/></g>
<g><path style="opacity:0.004" fill="#000000" d="M 2534.5,1923.5 C 2535.83,1923.5 2537.17,1923.5 2538.5,1923.5C 2537.17,1924.83 2535.83,1924.83 2534.5,1923.5 Z"/></g>
</svg>
